<svg width="32" height="30" viewBox="0 0 32 30" fill="none" xmlns="http://www.w3.org/2000/svg">
<path fill-rule="evenodd" clip-rule="evenodd" d="M24.0002 5.00025C23.0172 5.00025 22.2218 5.74678 22.2218 6.66692C22.2218 7.58705 23.0172 8.33358 24.0002 8.33358C24.982 8.33358 25.7774 7.58705 25.7774 6.66692C25.7774 5.74678 24.982 5.00025 24.0002 5.00025ZM16 20C13.0547 20 10.6667 17.7625 10.6667 15C10.6667 12.2387 13.0547 10 16 10C18.9453 10 21.3333 12.2387 21.3333 15C21.3333 17.7625 18.9453 20 16 20ZM15.9996 7.50026C11.5803 7.50026 7.99961 10.8583 7.99961 15.0003C7.99961 19.1434 11.5803 22.5003 15.9996 22.5003C20.4177 22.5003 23.9996 19.1434 23.9996 15.0003C23.9996 10.8583 20.4177 7.50026 15.9996 7.50026ZM16 0C11.6547 0 11.1107 0.0175 9.40267 0.09C3.592 0.34 0.362667 3.3625 0.096 8.81625C0.0173333 10.4162 0 10.9262 0 15C0 19.075 0.0173333 19.585 0.096 21.185C0.362667 26.6337 3.58667 29.66 9.40267 29.91C11.1107 29.9837 11.6547 30 16 30C20.3453 30 20.8907 29.9837 22.5973 29.91C28.4027 29.6612 31.64 26.6387 31.9027 21.185C31.9813 19.585 32 19.075 32 15C32 10.9262 31.9813 10.4162 31.9027 8.81625C31.6413 3.37375 28.4133 0.34125 22.5973 0.09C20.8907 0.0175 20.3453 0 16 0ZM15.9996 2.50025C20.342 2.50025 20.857 2.5155 22.5714 2.5892C26.9788 2.77725 29.0375 4.73786 29.2381 8.83951C29.3167 10.4469 29.3329 10.9285 29.3329 14.9996C29.3329 19.072 29.3167 19.5536 29.2381 21.161C29.0375 25.2588 26.9829 27.2232 22.5714 27.4126C20.857 27.485 20.3433 27.5003 15.9996 27.5003C11.6573 27.5003 11.1423 27.485 9.42782 27.4126C5.00822 27.222 2.96173 25.255 2.76115 21.161C2.6839 19.5536 2.66628 19.072 2.66628 14.9996C2.66628 10.9285 2.6839 10.4469 2.76115 8.83951C2.96309 4.73786 5.01635 2.77725 9.42782 2.5892C11.1436 2.5155 11.6573 2.50025 15.9996 2.50025Z" fill="white"/>
</svg>
