<svg width="30" height="30" viewBox="0 0 30 30" fill="none" xmlns="http://www.w3.org/2000/svg">
	<path clip-rule="evenodd" fill-rule="evenodd" fill="white" d="M1.4,1.1C1.4,1.1,1.4,1.1,1.4,1.1c0,0,0.1,0,0.1,0c2.7,0,5.3,0,8,0c0.8,1.1,1.5,2.2,2.3,3.3   c1.6,2.3,3.1,4.6,4.7,6.8c0,0,0,0.1,0.1,0.1c0,0,0.1-0.1,0.1-0.1c0.9-1,1.7-2,2.6-3c2-2.3,4-4.7,6-7c0,0,0-0.1,0.1-0.1   c0.8,0,1.6,0,2.4,0c0,0,0,0.1-0.1,0.1c-0.9,1-1.8,2-2.6,3.1c-2.4,2.8-4.8,5.6-7.2,8.4c-0.1,0.1-0.1,0.2-0.2,0.2c0,0,0,0.1,0.1,0.1   c1.1,1.6,2.1,3.1,3.2,4.7c2.3,3.4,4.7,6.8,7,10.2c0.2,0.3,0.5,0.7,0.7,1c0,0,0,0,0,0c0,0-0.1,0-0.1,0c-2.7,0-5.3,0-8,0   c0,0,0-0.1-0.1-0.1c-0.9-1.2-1.7-2.5-2.6-3.7c-1.6-2.3-3.1-4.6-4.7-6.8c0,0,0-0.1-0.1-0.1c0,0-0.1,0.1-0.1,0.1   c-0.2,0.2-0.3,0.4-0.5,0.6c-2.9,3.3-5.7,6.7-8.6,10c0,0,0,0.1-0.1,0.1c-0.8,0-1.6,0-2.4,0c0,0-0.1,0-0.1,0c0,0,0.1,0,0.1-0.1   c0.3-0.3,0.5-0.6,0.8-0.9c3.2-3.7,6.4-7.5,9.6-11.2c0.1-0.1,0.1-0.1,0.2-0.2c0,0,0-0.1-0.1-0.1c-0.4-0.6-0.8-1.2-1.3-1.9   C7.9,10.5,5.1,6.5,2.3,2.4C2.1,2,1.8,1.6,1.4,1.1C1.5,1.2,1.5,1.1,1.4,1.1z M4.7,2.9C4.7,3,4.8,3,4.8,3.1c2.6,3.7,5.2,7.4,7.8,11.1   c3,4.3,6,8.6,9,12.8c0,0.1,0.1,0.1,0.2,0.1c1.1,0,2.3,0,3.4,0c0,0,0.1,0,0.1,0c0-0.1-0.1-0.1-0.1-0.2c-1.9-2.7-3.7-5.3-5.6-8   C15.9,13.7,12.2,8.3,8.5,3C8.4,2.9,8.3,2.9,8.2,2.9c-1.1,0-2.3,0-3.4,0C4.8,2.9,4.8,2.9,4.7,2.9z" />
</svg>