<?xml version="1.0" encoding="UTF-8"?>
<svg id="Layer_1" data-name="Layer 1" xmlns="http://www.w3.org/2000/svg" width="78" height="78" viewBox="0 0 78 78">
  <defs>
    <style>
      .cls-1 {
        fill: #fff;
      }
    </style>
  </defs>
  <path id="Discrod" class="cls-1" d="M65,14.86c-4.85-2.27-10.03-3.91-15.45-4.86-.66,1.21-1.45,2.82-1.98,4.1-5.76-.87-11.48-.87-17.13,0-.53-1.29-1.34-2.91-2-4.1-5.42.93-10.62,2.59-15.47,4.86C3.19,29.66.55,44.08,1.87,58.28c6.49,4.85,12.78,7.79,18.96,9.71,1.53-2.09,2.88-4.33,4.06-6.68-2.24-.85-4.38-1.9-6.39-3.11.53-.4,1.06-.8,1.56-1.24,12.33,5.76,25.72,5.76,37.89,0,.52.43,1.03.84,1.56,1.24-2.03,1.22-4.17,2.27-6.41,3.12,1.18,2.35,2.53,4.59,4.06,6.68,6.18-1.93,12.48-4.86,18.96-9.72,1.56-16.47-2.66-30.75-11.14-43.42h.02ZM26.56,49.55c-3.7,0-6.73-3.46-6.73-7.66s2.96-7.66,6.73-7.66,6.79,3.46,6.73,7.66c0,4.2-2.96,7.66-6.73,7.66ZM51.45,49.55c-3.7,0-6.73-3.46-6.73-7.66s2.96-7.66,6.73-7.66,6.79,3.46,6.73,7.66c0,4.2-2.96,7.66-6.73,7.66Z"/>
</svg>